<?xml version="1.0" encoding="UTF-8"?>
<svg id="Layer_2" data-name="Layer 2" xmlns="http://www.w3.org/2000/svg" viewBox="0 0 257.74 71.61">
  <defs>
    <style>
      .cls-1 {
        fill: #1f5731;
      }

      .cls-2 {
        fill: #3a843f;
      }
    </style>
  </defs>
  <g id="Layer_1-2" data-name="Layer 1">
    <g>
      <path class="cls-1" d="M6.37,6.37v25.69h18.36v6.07H6.37v33.48H0V0h26.11v6.37H6.37Z"/>
      <path class="cls-1" d="M32.85,71.61V0h6.46v71.61h-6.46Z"/>
      <path class="cls-1" d="M46.87,71.61V0h6.46v65.03h18.64v6.57h-25.1Z"/>
      <path class="cls-1" d="M120.69,71.61V9.41h-.28l-16.02,62.2h-5.98l-15.93-62.2h-.28v62.2h-6.09V0h9.6l15.59,60.48h.37L117.09,0h9.97v71.61h-6.37Z"/>
      <path class="cls-2" d="M155.3,71.61l-21.78-36.71h-.09v36.71h-6.37V0h6.37v32.16h.09L154,0h7.47l-21.96,33.07,23.53,38.53h-7.75Z"/>
      <path class="cls-2" d="M164.31,71.61V0h26.3v6.27h-20.02v25.08h18.73v6.07h-18.73v27.81h20.95v6.37h-27.22Z"/>
      <path class="cls-2" d="M194.54,71.61V0h26.3v6.27h-20.02v25.08h18.73v6.07h-18.73v27.81h20.95v6.37h-27.22Z"/>
      <path class="cls-2" d="M257.74,19.42c0,3.3-.45,6.22-1.34,8.75-.89,2.53-2.08,4.64-3.55,6.32-1.48,1.69-3.18,2.97-5.12,3.84-1.94.88-3.95,1.31-6.04,1.31h-9.6v31.96h-6.37V0h15.41c1.91,0,3.84.3,5.81.91,1.97.61,3.75,1.67,5.35,3.19,1.6,1.52,2.91,3.52,3.92,6.02,1.01,2.5,1.52,5.6,1.52,9.3ZM251.38,19.47c0-2.35-.28-4.38-.83-6.1-.55-1.71-1.32-3.11-2.31-4.18-.99-1.08-2.11-1.87-3.37-2.37-1.26-.5-2.63-.75-4.11-.75h-8.67v27.51h8.77c2.89,0,5.37-1.16,7.43-3.48,2.06-2.32,3.09-5.86,3.09-10.63Z"/>
    </g>
  </g>
</svg>